<svg xmlns="http://www.w3.org/2000/svg" version="1.1" xmlns:xlink="http://www.w3.org/1999/xlink" xmlns:svgjs="http://svgjs.dev/svgjs" width="2000" height="1247" viewBox="0 0 2000 1247"><g transform="matrix(1,0,0,1,-1.2121212121212466,140.33906342780006)"><svg viewBox="0 0 396 247" data-background-color="#ffffff" preserveAspectRatio="xMidYMid meet" height="1247" width="2000" xmlns="http://www.w3.org/2000/svg" xmlns:xlink="http://www.w3.org/1999/xlink"><g id="tight-bounds" transform="matrix(1,0,0,1,0.2400000000000091,-0.09999999999999432)"><svg viewBox="0 0 395.52 247.2" height="247.2" width="395.52"><g><svg></svg></g><g><svg viewBox="0 0 395.52 247.2" height="247.2" width="395.52"><g transform="matrix(1,0,0,1,75.54432,100.63641236929922)"><svg viewBox="0 0 244.43135999999998 45.92717526140155" height="45.92717526140155" width="244.43135999999998"><g><svg viewBox="0 0 244.43135999999998 45.92717526140155" height="45.92717526140155" width="244.43135999999998"><g><svg viewBox="0 0 244.43135999999998 45.92717526140155" height="45.92717526140155" width="244.43135999999998"><g><svg viewBox="0 0 244.43135999999998 45.92717526140155" height="45.92717526140155" width="244.43135999999998"><g id="textblocktransform"><svg viewBox="0 0 244.43135999999998 45.92717526140155" height="45.92717526140155" width="244.43135999999998" id="textblock"><g><svg viewBox="0 0 244.43135999999998 45.92717526140155" height="45.92717526140155" width="244.43135999999998"><g transform="matrix(1,0,0,1,0,0)"><svg width="244.43135999999998" viewBox="1.68 -39.79 263.37 49.48" height="45.92717526140155" data-palette-color="#7a26c1"><path d="M10.28-28.71L10.28-28.71Q7.23-28.71 5.22-30.15 3.22-31.59 3.22-34.3L3.22-34.3Q3.22-37.01 5.2-38.4 7.18-39.79 10.28-39.79L10.28-39.79Q13.43-39.79 15.36-38.43 17.29-37.06 17.29-34.3L17.29-34.3Q17.29-31.54 15.31-30.13 13.33-28.71 10.28-28.71ZM1.68 9.69L1.68 9.69 1.68 2.25 2.44 2.25Q5.59 2.25 5.59 0L5.59 0 5.59-18.6 1.68-18.6 1.68-24.61 17.29-26.15 17.29-2Q17.29 2.78 15.58 5.32L15.58 5.32Q13.87 7.86 10.5 8.78 7.13 9.69 1.68 9.69ZM30.64-28.71L30.64-28.71Q27.59-28.71 25.61-30.15 23.63-31.59 23.63-34.3L23.63-34.3Q23.63-37.01 25.61-38.4 27.59-39.79 30.69-39.79L30.69-39.79Q33.79-39.79 35.73-38.43 37.67-37.06 37.67-34.3L37.67-34.3Q37.67-31.59 35.68-30.15 33.69-28.71 30.64-28.71ZM36.47-7.35L39.62-7.35 39.62 0 21.63 0 21.63-7.35 24.78-7.35 24.78-18.6 21.63-18.6 21.63-24.61 36.47-26.15 36.47-7.35ZM75.7-16.6L75.7-16.6 75.7-7.06 79.1-7.06 79.1 0 63.98 0 63.98-16.65Q63.98-17.7 63.31-18.51 62.64-19.31 61.69-19.31L61.69-19.31Q59.91-19.31 59.44-17.53L59.44-17.53Q58.95-15.7 58.95-12.4L58.95-12.4 58.95-7.06 59-7.06 59 0 43.75 0 43.75-7.06 47.29-7.06 47.29-18.6 43.75-18.6 43.75-25.2 58.95-26.66 58.95-23Q60.64-25 62.79-25.83 64.94-26.66 67.65-26.66L67.65-26.66Q75.7-26.66 75.7-16.6ZM114.96-18.6L111.05-18.6 106.85-15.09 111.91-7.35 115.74-7.35 115.74 0 104.09 0 96.94-10.69 96.94 0 80.95 0 80.95-7.35 85.25-7.35 85.25-29.86 80.95-29.86 80.95-36.5 96.94-38.11 96.94-14.36 102.04-18.6 99.36-18.6 99.36-26.15 114.96-26.15 114.96-18.6ZM139.47 1.49L143.23 1.49 143.23 9.2 126.33 9.2 126.33 1.49 131.29 1.49 132.63-0.76 121.23-18.6 118.13-18.6 118.13-26.15 136.44-26.15 136.44-18.6 134.02-18.6 138.08-11.11 141.79-18.6 139.13-18.6 139.13-26.15 152.77-26.15 152.77-18.6 150.14-18.6 139.47 1.49ZM166.88 0.44L166.88 0.44Q159.02 0.44 159.02-9.4L159.02-9.4 159.02-18.6 155.87-18.6 155.87-25.2 170.72-26.66 170.72-9.4Q170.72-8.45 171.42-7.65 172.13-6.86 173.08-6.86L173.08-6.86Q174.18-6.86 174.8-7.6 175.43-8.35 175.43-9.45L175.43-9.45 175.43-18.6 173.08-18.6 173.08-25.2 187.12-26.66 187.12-7.35 190.27-7.35 190.27 0 175.43 0 175.43-3.81Q174.13-1.81 171.97-0.68 169.81 0.44 166.88 0.44ZM226.38-16.6L226.38-16.6 226.38-7.06 229.77-7.06 229.77 0 214.66 0 214.66-16.65Q214.66-17.7 213.99-18.51 213.32-19.31 212.36-19.31L212.36-19.31Q210.58-19.31 210.12-17.53L210.12-17.53Q209.63-15.7 209.63-12.4L209.63-12.4 209.63-7.06 209.68-7.06 209.68 0 194.42 0 194.42-7.06 197.96-7.06 197.96-18.6 194.42-18.6 194.42-25.2 209.63-26.66 209.63-23Q211.31-25 213.46-25.83 215.61-26.66 218.32-26.66L218.32-26.66Q226.38-26.66 226.38-16.6ZM246.42 9.5L246.42 9.5Q241.19 9.5 235.41 8.01L235.41 8.01 235.41 0.95Q238.65 1.95 240.78 2.48 242.9 3 244.95 3L244.95 3Q250.86 3 250.86-2.86L250.86-2.86Q249.52-1.66 247.57-0.83 245.61 0 243.15 0L243.15 0Q239.61 0 237.17-1.78L237.17-1.78Q234.72-3.54 233.49-6.54 232.26-9.55 232.26-13.21L232.26-13.21Q232.26-16.97 233.5-20L233.5-20Q234.75-23.05 237.2-24.85 239.66-26.66 243.15-26.66L243.15-26.66Q247.96-26.66 250.86-22.51L250.86-22.51 252.62-26.15 265.05-26.15 265.05-18.6 262.7-18.6 262.7-3.3Q262.7 0.93 260.69 3.78 258.67 6.64 255.01 8.07 251.35 9.5 246.42 9.5ZM247.76-6.69L247.76-6.69Q248.91-6.69 249.86-7.4 250.81-8.11 251.01-8.79L251.01-8.79 251.01-17.7Q250.08-19.51 247.57-19.51L247.57-19.51Q245.56-19.51 244.36-17.77 243.15-16.04 243.15-13.06L243.15-13.06Q243.15-10.21 244.36-8.45 245.56-6.69 247.76-6.69Z" opacity="1" transform="matrix(1,0,0,1,0,0)" fill="#7a26c1" class="wordmark-text-0" data-fill-palette-color="primary" id="text-0"></path></svg></g></svg></g></svg></g></svg></g><g></g></svg></g></svg></g></svg></g><g><path d="M80.313 89.794A122.216 122.216 0 0 1 315.207 89.794L311.065 89.794A118.074 118.074 0 0 0 84.455 89.794L80.313 89.794M80.313 157.406A122.216 122.216 0 0 0 315.207 157.406L311.065 157.406A118.074 118.074 0 0 1 84.455 157.406L80.313 157.406" fill="#7a26c1" stroke="transparent" data-fill-palette-color="tertiary"></path></g></svg></g><defs></defs></svg><rect width="395.52" height="247.2" fill="none" stroke="none" visibility="hidden"></rect></g></svg></g></svg>